<svg xmlns="http://www.w3.org/2000/svg" width="522.6" height="250"><line x1="39.811" x2="492.6" y1="25" y2="25" stroke="#1967d2" stroke-width="1"/><line x1="39.811" x2="492.6" y1="75" y2="75" stroke="#1967d2" stroke-width="1"/><line x1="39.811" x2="492.6" y1="125" y2="125" stroke="#1967d2" stroke-width="1"/><line x1="39.811" x2="492.6" y1="175" y2="175" stroke="#1967d2" stroke-width="1"/><line x1="39.811" x2="492.6" y1="225" y2="225" stroke="#1967d2" stroke-width="1"/><line x1="129.994" x2="129.994" y1="25" y2="75" stroke="#000" stroke-width="3"/><line x1="230.738" x2="230.738" y1="25" y2="125" stroke="#000" stroke-width="3"/><line x1="331.483" x2="331.483" y1="25" y2="175" stroke="#000" stroke-width="3"/><line x1="432.227" x2="432.227" y1="25" y2="225" stroke="#000" stroke-width="3"/><rect width="59.621" height="40" x="10" y="5" fill="#fff" stroke="#000" stroke-width="0"/><text x="39.811" y="25" dominant-baseline="middle" font-size="14" text-anchor="middle">(-1, -1):</text><rect width="59.621" height="40" x="10" y="55" fill="#fff" stroke="#000" stroke-width="0"/><text x="39.811" y="75" dominant-baseline="middle" font-size="14" text-anchor="middle">(0, 0):</text><rect width="59.621" height="40" x="10" y="105" fill="#fff" stroke="#000" stroke-width="0"/><text x="39.811" y="125" dominant-baseline="middle" font-size="14" text-anchor="middle">(1, 0):</text><rect width="59.621" height="40" x="10" y="155" fill="#fff" stroke="#000" stroke-width="0"/><text x="39.811" y="175" dominant-baseline="middle" font-size="14" text-anchor="middle">(2, 0):</text><rect width="59.621" height="40" x="10" y="205" fill="#fff" stroke="#000" stroke-width="0"/><text x="39.811" y="225" dominant-baseline="middle" font-size="14" text-anchor="middle">(3, 0):</text><rect width="80.745" height="40" x="89.621" y="55" fill="#fff" stroke="#000" stroke-width="1"/><text x="129.994" y="75" dominant-baseline="middle" font-size="14" text-anchor="middle">XX^(xx-0)</text><rect width="80.745" height="40" x="89.621" y="5" fill="#fff" stroke="#000" stroke-width="1"/><text x="129.994" y="25" dominant-baseline="middle" font-size="14" text-anchor="middle">XX</text><rect width="80.745" height="40" x="190.366" y="105" fill="#fff" stroke="#000" stroke-width="1"/><text x="230.738" y="125" dominant-baseline="middle" font-size="14" text-anchor="middle">XX^(xx-1)</text><rect width="80.745" height="40" x="190.366" y="5" fill="#fff" stroke="#000" stroke-width="1"/><text x="230.738" y="25" dominant-baseline="middle" font-size="14" text-anchor="middle">XX</text><rect width="80.745" height="40" x="291.11" y="155" fill="#fff" stroke="#000" stroke-width="1"/><text x="331.483" y="175" dominant-baseline="middle" font-size="14" text-anchor="middle">XX^(xx-2)</text><rect width="80.745" height="40" x="291.11" y="5" fill="#fff" stroke="#000" stroke-width="1"/><text x="331.483" y="25" dominant-baseline="middle" font-size="14" text-anchor="middle">XX</text><rect width="80.745" height="40" x="391.855" y="205" fill="#fff" stroke="#000" stroke-width="1"/><text x="432.227" y="225" dominant-baseline="middle" font-size="14" text-anchor="middle">XX^(xx-3)</text><rect width="80.745" height="40" x="391.855" y="5" fill="#fff" stroke="#000" stroke-width="1"/><text x="432.227" y="25" dominant-baseline="middle" font-size="14" text-anchor="middle">XX</text></svg>