<svg xmlns="http://www.w3.org/2000/svg" width="522.59953125" height="250.0"><line x1="39.810625" x2="492.59953125000004" y1="25.0" y2="25.0" stroke="#1967d2" stroke-width="1" /><line x1="39.810625" x2="492.59953125000004" y1="75.0" y2="75.0" stroke="#1967d2" stroke-width="1" /><line x1="39.810625" x2="492.59953125000004" y1="125.0" y2="125.0" stroke="#1967d2" stroke-width="1" /><line x1="39.810625" x2="492.59953125000004" y1="175.0" y2="175.0" stroke="#1967d2" stroke-width="1" /><line x1="39.810625" x2="492.59953125000004" y1="225.0" y2="225.0" stroke="#1967d2" stroke-width="1" /><line x1="129.99353515625" x2="129.99353515625" y1="25.0" y2="75.0" stroke="black" stroke-width="3" /><line x1="230.73810546875004" x2="230.73810546875004" y1="25.0" y2="125.0" stroke="black" stroke-width="3" /><line x1="331.48267578125007" x2="331.48267578125007" y1="25.0" y2="175.0" stroke="black" stroke-width="3" /><line x1="432.22724609375007" x2="432.22724609375007" y1="25.0" y2="225.0" stroke="black" stroke-width="3" /><rect x="10.0" y="5.0" width="59.62125" height="40" stroke="black" fill="white" stroke-width="0" /><text x="39.810625" y="25.0" dominant-baseline="middle" text-anchor="middle" font-size="14px">(-1, -1): </text><rect x="10.0" y="55.0" width="59.62125" height="40" stroke="black" fill="white" stroke-width="0" /><text x="39.810625" y="75.0" dominant-baseline="middle" text-anchor="middle" font-size="14px">(0, 0): </text><rect x="10.0" y="105.0" width="59.62125" height="40" stroke="black" fill="white" stroke-width="0" /><text x="39.810625" y="125.0" dominant-baseline="middle" text-anchor="middle" font-size="14px">(1, 0): </text><rect x="10.0" y="155.0" width="59.62125" height="40" stroke="black" fill="white" stroke-width="0" /><text x="39.810625" y="175.0" dominant-baseline="middle" text-anchor="middle" font-size="14px">(2, 0): </text><rect x="10.0" y="205.0" width="59.62125" height="40" stroke="black" fill="white" stroke-width="0" /><text x="39.810625" y="225.0" dominant-baseline="middle" text-anchor="middle" font-size="14px">(3, 0): </text><rect x="89.62125" y="55.0" width="80.74457031250002" height="40" stroke="black" fill="white" stroke-width="1" /><text x="129.99353515625" y="75.0" dominant-baseline="middle" text-anchor="middle" font-size="14px">XX^(xx-0)</text><rect x="89.62125" y="5.0" width="80.74457031250002" height="40" stroke="black" fill="white" stroke-width="1" /><text x="129.99353515625" y="25.0" dominant-baseline="middle" text-anchor="middle" font-size="14px">XX</text><rect x="190.36582031250003" y="105.0" width="80.74457031250002" height="40" stroke="black" fill="white" stroke-width="1" /><text x="230.73810546875004" y="125.0" dominant-baseline="middle" text-anchor="middle" font-size="14px">XX^(xx-1)</text><rect x="190.36582031250003" y="5.0" width="80.74457031250002" height="40" stroke="black" fill="white" stroke-width="1" /><text x="230.73810546875004" y="25.0" dominant-baseline="middle" text-anchor="middle" font-size="14px">XX</text><rect x="291.11039062500004" y="155.0" width="80.74457031250002" height="40" stroke="black" fill="white" stroke-width="1" /><text x="331.48267578125007" y="175.0" dominant-baseline="middle" text-anchor="middle" font-size="14px">XX^(xx-2)</text><rect x="291.11039062500004" y="5.0" width="80.74457031250002" height="40" stroke="black" fill="white" stroke-width="1" /><text x="331.48267578125007" y="25.0" dominant-baseline="middle" text-anchor="middle" font-size="14px">XX</text><rect x="391.85496093750004" y="205.0" width="80.74457031250002" height="40" stroke="black" fill="white" stroke-width="1" /><text x="432.22724609375007" y="225.0" dominant-baseline="middle" text-anchor="middle" font-size="14px">XX^(xx-3)</text><rect x="391.85496093750004" y="5.0" width="80.74457031250002" height="40" stroke="black" fill="white" stroke-width="1" /><text x="432.22724609375007" y="25.0" dominant-baseline="middle" text-anchor="middle" font-size="14px">XX</text></svg>